<svg width="1280" height="320" viewBox="0 0 1280 320" fill="none" xmlns="http://www.w3.org/2000/svg" role="img" aria-label="fraud-mlops-control-tower banner">
  <defs>
    <linearGradient id="bg" x1="0" y1="0" x2="1280" y2="320" gradientUnits="userSpaceOnUse">
      <stop offset="0" stop-color="#07111F"/>
      <stop offset="0.55" stop-color="#0B1F3A"/>
      <stop offset="1" stop-color="#24143D"/>
    </linearGradient>
    <style>
      .title{font-family:Inter,Segoe UI,Arial,sans-serif;font-size:42px;font-weight:750;fill:#fff}
      .sub{font-family:Inter,Segoe UI,Arial,sans-serif;font-size:21px;fill:#D8E2F0}
      .chip{font-family:Inter,Segoe UI,Arial,sans-serif;font-size:14px;font-weight:650;fill:#fff}
      .node{font-family:Inter,Segoe UI,Arial,sans-serif;font-size:13px;fill:#D8E2F0}
    </style>
  </defs>
  <rect width="1280" height="320" rx="26" fill="url(#bg)"/>
  <g opacity=".38">
    <rect x="780" y="70" width="110" height="52" rx="12" fill="#0D419D" stroke="#58A6FF"/>
    <text x="808" y="102" class="node">Data</text>
    <rect x="930" y="70" width="110" height="52" rx="12" fill="#0F2F24" stroke="#2EA043"/>
    <text x="958" y="102" class="node">Model</text>
    <rect x="1080" y="70" width="110" height="52" rx="12" fill="#24143D" stroke="#A371F7"/>
    <text x="1104" y="102" class="node">Serve</text>
    <rect x="930" y="185" width="140" height="52" rx="12" fill="#24143D" stroke="#A371F7"/>
    <text x="956" y="217" class="node">Governance</text>
    <path d="M890 96 H930" stroke="#9FB3C8" stroke-width="3"/>
    <path d="M1040 96 H1080" stroke="#9FB3C8" stroke-width="3"/>
    <path d="M1135 122 C1135 172 1070 172 1070 211" stroke="#9FB3C8" stroke-width="3" fill="none"/>
  </g>
  <text x="74" y="104" class="title">fraud-mlops-control-tower</text>
  <text x="74" y="150" class="sub">Synthetic Risk Analytics · MLflow · FastAPI · Docker · Governance</text>
  <text x="74" y="188" class="sub">Model lifecycle evidence for regulated and data-intensive environments</text>
  <rect x="74" y="232" width="112" height="36" rx="18" fill="#0D419D"/>
  <text x="102" y="255" class="chip">MLflow</text>
  <rect x="202" y="232" width="118" height="36" rx="18" fill="#1A7F37"/>
  <text x="232" y="255" class="chip">FastAPI</text>
  <rect x="336" y="232" width="146" height="36" rx="18" fill="#6E40C9"/>
  <text x="364" y="255" class="chip">Governance</text>
</svg>
